<svg width="16" height="16" viewBox="0 0 16 16" fill="none" xmlns="http://www.w3.org/2000/svg">
<path d="M7.75 0.25C3.46875 0.25 0 3.71875 0 8C0 12.2812 3.46875 15.75 7.75 15.75C12.0312 15.75 15.5 12.2812 15.5 8C15.5 3.71875 12.0312 0.25 7.75 0.25ZM7.75 3.25C9.25 3.25 10.5 4.5 10.5 6C10.5 7.53125 9.25 8.75 7.75 8.75C6.21875 8.75 5 7.53125 5 6C5 4.5 6.21875 3.25 7.75 3.25ZM7.75 14C5.90625 14 4.25 13.1875 3.15625 11.875C3.75 10.7812 4.90625 10 6.25 10C6.3125 10 6.375 10.0312 6.46875 10.0625C6.875 10.1875 7.28125 10.25 7.75 10.25C8.1875 10.25 8.625 10.1875 9 10.0625C9.09375 10.0312 9.15625 10 9.25 10C10.5625 10 11.7188 10.7812 12.3125 11.875C11.2188 13.1875 9.5625 14 7.75 14Z" fill="white"/>
</svg>
