<svg width="17" height="17" viewBox="0 0 17 17" fill="none" xmlns="http://www.w3.org/2000/svg">
<path d="M16.0312 14.2393L12.9062 11.1143C12.75 10.9893 12.5625 10.8955 12.375 10.8955H11.875C12.7188 9.80176 13.25 8.42676 13.25 6.89551C13.25 3.33301 10.3125 0.395508 6.75 0.395508C3.15625 0.395508 0.25 3.33301 0.25 6.89551C0.25 10.4893 3.15625 13.3955 6.75 13.3955C8.25 13.3955 9.625 12.8955 10.75 12.0205V12.5518C10.75 12.7393 10.8125 12.9268 10.9688 13.083L14.0625 16.1768C14.375 16.4893 14.8438 16.4893 15.125 16.1768L16 15.3018C16.3125 15.0205 16.3125 14.5518 16.0312 14.2393ZM6.75 10.8955C4.53125 10.8955 2.75 9.11426 2.75 6.89551C2.75 4.70801 4.53125 2.89551 6.75 2.89551C8.9375 2.89551 10.75 4.70801 10.75 6.89551C10.75 9.11426 8.9375 10.8955 6.75 10.8955Z" fill="white"/>
</svg>
